<svg xmlns="http://www.w3.org/2000/svg" viewBox="0 0 320 240" role="img"><rect width="320" height="240" rx="24" fill="#F0EFDF"/><ellipse cx="160" cy="204" rx="79" ry="7" fill="#DEDCC8" /><path d="M129 181 L120 202 M192 181 L200 202 M110 203 l21 0 M191 203 l21 0" fill="none" stroke="#675444" stroke-width="5" stroke-linecap="round" stroke-linejoin="round"/><path d="M84 144 Q51 102 82 99 L109 126Z" fill="#70A4AE"/><path d="M225 140 Q260 99 237 89 L216 118Z" fill="#70A4AE"/><ellipse cx="160" cy="139" rx="67" ry="58" fill="#70A4AE" /><ellipse cx="160" cy="162" rx="43" ry="31" fill="#FAE9C9" /><path d="M147 83 Q146 54 171 66 L171 82Z" fill="#70A4AE"/><ellipse cx="139" cy="123" rx="5" ry="7" fill="#675444" /><circle cx="138" cy="121" r="1.8" fill="#FFFFFF"/><ellipse cx="184" cy="123" rx="5" ry="7" fill="#675444" /><circle cx="183" cy="121" r="1.8" fill="#FFFFFF"/><path d="M149 139 L173 139 L161 152Z" fill="#E9BE64"/></svg>