<svg xmlns="http://www.w3.org/2000/svg" viewBox="0 0 320 240" role="img"><rect width="320" height="240" rx="24" fill="#F0EFDF"/><g transform="translate(6 0) scale(.46)"><ellipse cx="160" cy="156" rx="109" ry="43" fill="#E0CBAE" /><path d="M58 159 Q160 206 264 158" fill="none" stroke="#C7AA87" stroke-width="4" stroke-linecap="round" stroke-linejoin="round"/><g transform="translate(92 55) scale(1.23)" fill="#675444"><ellipse cx="28" cy="26" rx="10" ry="13" transform="rotate(-22 28 26)"/><ellipse cx="48" cy="18" rx="10" ry="14"/><ellipse cx="68" cy="19" rx="10" ry="14"/><ellipse cx="87" cy="31" rx="10" ry="12" transform="rotate(24 87 31)"/><path d="M29 61Q28 43 48 47Q58 52 69 46Q90 49 90 69Q85 91 61 96Q34 92 25 78Q21 69 29 61Z"/></g></g><g transform="translate(160 0) scale(.46)"><ellipse cx="160" cy="204" rx="79" ry="7" fill="#DEDCC8" /><path d="M158 65 C130 43 89 58 83 94 C74 132 92 173 121 185 C135 191 148 185 160 185 C174 185 186 191 201 182 C228 166 242 123 232 90 C222 57 187 45 158 65 Z" fill="#D85B49"/><path d="M161 64 Q161 44 176 32" fill="none" stroke="#675444" stroke-width="7" stroke-linecap="round" stroke-linejoin="round"/><path d="M174 47 Q194 26 217 45 Q204 65 174 47Z" fill="#7E9B60"/><path d="M231 87 Q214 85 211 101 Q192 97 190 115 Q180 132 197 141 Q193 158 213 161 Q228 144 234 119 Z" fill="#FAE9C9"/><path d="M245 86 Q220 89 220 105 Q200 103 202 120 Q190 130 208 140 Q200 151 223 156 L254 157Z" fill="#F0EFDF"/></g><g transform="translate(6 106) scale(.46)"><ellipse cx="160" cy="195" rx="105" ry="20" fill="#DED4B6" /><path d="M75 190 Q72 169 135 153" fill="none" stroke="#547B4E" stroke-width="6" stroke-linecap="round" stroke-linejoin="round"/><path d="M96 175 q-7 -24 12 -25 q8 15 -12 25Z" fill="#7E9B60"/><ellipse cx="135.0" cy="142.0" rx="9" ry="10" fill="#E4A2A1" /><ellipse cx="145.46" cy="149.6" rx="9" ry="10" fill="#E4A2A1" /><ellipse cx="141.47" cy="161.9" rx="9" ry="10" fill="#E4A2A1" /><ellipse cx="128.53" cy="161.9" rx="9" ry="10" fill="#E4A2A1" /><ellipse cx="124.54" cy="149.6" rx="9" ry="10" fill="#E4A2A1" /><circle cx="135" cy="153" r="7" fill="#E9BE64"/><path d="M133 190 Q130 169 193 153" fill="none" stroke="#547B4E" stroke-width="6" stroke-linecap="round" stroke-linejoin="round"/><path d="M154 175 q-7 -24 12 -25 q8 15 -12 25Z" fill="#7E9B60"/><ellipse cx="193.0" cy="142.0" rx="9" ry="10" fill="#D85B49" /><ellipse cx="203.46" cy="149.6" rx="9" ry="10" fill="#D85B49" /><ellipse cx="199.47" cy="161.9" rx="9" ry="10" fill="#D85B49" /><ellipse cx="186.53" cy="161.9" rx="9" ry="10" fill="#D85B49" /><ellipse cx="182.54" cy="149.6" rx="9" ry="10" fill="#D85B49" /><circle cx="193" cy="153" r="7" fill="#E9BE64"/><path d="M193 190 Q190 169 253 175" fill="none" stroke="#547B4E" stroke-width="6" stroke-linecap="round" stroke-linejoin="round"/><path d="M214 175 q-7 -24 12 -25 q8 15 -12 25Z" fill="#7E9B60"/><ellipse cx="253.0" cy="164.0" rx="9" ry="10" fill="#E4A2A1" /><ellipse cx="263.46" cy="171.6" rx="9" ry="10" fill="#E4A2A1" /><ellipse cx="259.47" cy="183.9" rx="9" ry="10" fill="#E4A2A1" /><ellipse cx="246.53" cy="183.9" rx="9" ry="10" fill="#E4A2A1" /><ellipse cx="242.54" cy="171.6" rx="9" ry="10" fill="#E4A2A1" /><circle cx="253" cy="175" r="7" fill="#E9BE64"/></g><g transform="translate(160 106) scale(.46)"><ellipse cx="160" cy="151" rx="116" ry="55" fill="#BCD29A" /><path d="M47 165 Q160 221 274 163" fill="none" stroke="#8BA96A" stroke-width="5" stroke-linecap="round" stroke-linejoin="round"/><path d="M81 118 Q115 128 155 139" fill="none" stroke="#AE986F" stroke-width="5" stroke-linecap="round" stroke-linejoin="round"/><path d="M134 134 Q168 144 208 155" fill="none" stroke="#AE986F" stroke-width="5" stroke-linecap="round" stroke-linejoin="round"/><path d="M105 155 Q139 165 179 176" fill="none" stroke="#AE986F" stroke-width="5" stroke-linecap="round" stroke-linejoin="round"/><path d="M74 152 l-6 -14 M74 152 l4 -18 M74 152 l10 -9" fill="none" stroke="#547B4E" stroke-width="4" stroke-linecap="round" stroke-linejoin="round"/><path d="M95 125 l-6 -14 M95 125 l4 -18 M95 125 l10 -9" fill="none" stroke="#547B4E" stroke-width="4" stroke-linecap="round" stroke-linejoin="round"/><path d="M118 183 l-6 -14 M118 183 l4 -18 M118 183 l10 -9" fill="none" stroke="#547B4E" stroke-width="4" stroke-linecap="round" stroke-linejoin="round"/><path d="M215 175 l-6 -14 M215 175 l4 -18 M215 175 l10 -9" fill="none" stroke="#547B4E" stroke-width="4" stroke-linecap="round" stroke-linejoin="round"/><path d="M245 147 l-6 -14 M245 147 l4 -18 M245 147 l10 -9" fill="none" stroke="#547B4E" stroke-width="4" stroke-linecap="round" stroke-linejoin="round"/><path d="M208 111 l-6 -14 M208 111 l4 -18 M208 111 l10 -9" fill="none" stroke="#547B4E" stroke-width="4" stroke-linecap="round" stroke-linejoin="round"/><path d="M148 112 l-6 -14 M148 112 l4 -18 M148 112 l10 -9" fill="none" stroke="#547B4E" stroke-width="4" stroke-linecap="round" stroke-linejoin="round"/><path d="M187 186 l-6 -14 M187 186 l4 -18 M187 186 l10 -9" fill="none" stroke="#547B4E" stroke-width="4" stroke-linecap="round" stroke-linejoin="round"/></g></svg>