<svg xmlns="http://www.w3.org/2000/svg" viewBox="0 0 320 240" role="img"><rect width="320" height="240" rx="24" fill="#F0EFDF"/><g transform="translate(10 0) scale(.47)"><ellipse cx="160" cy="204" rx="79" ry="7" fill="#DEDCC8" /><ellipse cx="138" cy="64" rx="22" ry="45" fill="#E9DDCA" transform="rotate(-10 138 64)"/><ellipse cx="184" cy="61" rx="22" ry="47" fill="#E9DDCA" transform="rotate(8 184 61)"/><ellipse cx="138" cy="62" rx="10" ry="31" fill="#E4A2A1" /><ellipse cx="184" cy="59" rx="10" ry="33" fill="#E4A2A1" /><ellipse cx="160" cy="166" rx="62" ry="39" fill="#E9DDCA" /><ellipse cx="160" cy="132" rx="63" ry="49" fill="#F9EEDA" /><ellipse cx="119" cy="196" rx="24" ry="10" fill="#E9DDCA" /><ellipse cx="202" cy="196" rx="24" ry="10" fill="#E9DDCA" /><ellipse cx="137" cy="129" rx="5" ry="7" fill="#675444" /><circle cx="136" cy="127" r="1.8" fill="#FFFFFF"/><ellipse cx="185" cy="129" rx="5" ry="7" fill="#675444" /><circle cx="184" cy="127" r="1.8" fill="#FFFFFF"/><path d="M153 145 Q160 139 167 145 L160 152Z" fill="#E4A2A1"/><path d="M149 158 Q161 165 172 157" fill="none" stroke="#675444" stroke-width="3" stroke-linecap="round" stroke-linejoin="round"/></g><g transform="translate(164 0) scale(.47)"><ellipse cx="160" cy="204" rx="79" ry="7" fill="#DEDCC8" /><path d="M187 189 C274 213 283 116 244 64 C222 34 188 41 190 67 C190 86 230 75 239 119 Q253 159 193 153Z" fill="#C98A4D"/><ellipse cx="137" cy="168" rx="58" ry="38" fill="#B87842" /><ellipse cx="129" cy="120" rx="52" ry="48" fill="#C98A4D" /><path d="M85 94 Q73 65 97 65 L114 79 M151 77 Q173 52 176 83L168 100Z" fill="#C98A4D"/><ellipse cx="128" cy="146" rx="36" ry="21" fill="#FAE9C9" /><ellipse cx="137" cy="176" rx="30" ry="26" fill="#FAE9C9" /><ellipse cx="111" cy="120" rx="5" ry="7" fill="#675444" /><circle cx="110" cy="118" r="1.8" fill="#FFFFFF"/><ellipse cx="149" cy="120" rx="5" ry="7" fill="#675444" /><circle cx="148" cy="118" r="1.8" fill="#FFFFFF"/><ellipse cx="131" cy="142" rx="8" ry="6" fill="#675444" /><ellipse cx="105" cy="197" rx="22" ry="10" fill="#B87842" /><ellipse cx="171" cy="197" rx="22" ry="10" fill="#B87842" /></g><g transform="translate(10 110) scale(.47)"><ellipse cx="160" cy="204" rx="79" ry="7" fill="#DEDCC8" /><path d="M129 181 L120 202 M192 181 L200 202 M110 203 l21 0 M191 203 l21 0" fill="none" stroke="#675444" stroke-width="5" stroke-linecap="round" stroke-linejoin="round"/><path d="M84 144 Q51 102 82 99 L109 126Z" fill="#70A4AE"/><path d="M225 140 Q260 99 237 89 L216 118Z" fill="#70A4AE"/><ellipse cx="160" cy="139" rx="67" ry="58" fill="#70A4AE" /><ellipse cx="160" cy="162" rx="43" ry="31" fill="#FAE9C9" /><path d="M147 83 Q146 54 171 66 L171 82Z" fill="#70A4AE"/><ellipse cx="139" cy="123" rx="5" ry="7" fill="#675444" /><circle cx="138" cy="121" r="1.8" fill="#FFFFFF"/><ellipse cx="184" cy="123" rx="5" ry="7" fill="#675444" /><circle cx="183" cy="121" r="1.8" fill="#FFFFFF"/><path d="M149 139 L173 139 L161 152Z" fill="#E9BE64"/></g><g transform="translate(164 110) scale(.47)"><ellipse cx="160" cy="204" rx="79" ry="7" fill="#DEDCC8" /><path d="M62 172 L62.2 124.3 L76.9 114.3 L73.4 98.0 L90.8 92.6 L93.1 76.1 L111.5 75.8 L119.3 60.8 L137.0 65.6 L149.5 53.5 L164.7 63.0 L180.8 55.0 L191.9 68.2 L210.0 65.1 L216.0 80.8 L234.3 82.8 L234.6 99.4 L251.4 106.4 L246.0 122.3 L261 178 L225 197 L94 197Z" fill="#91613C"/><ellipse cx="164" cy="149" rx="74" ry="53" fill="#FAE9C9" /><ellipse cx="107" cy="190" rx="17" ry="12" fill="#AB7952" /><ellipse cx="219" cy="190" rx="17" ry="12" fill="#AB7952" /><circle cx="106" cy="113" r="20" fill="#D9B48E"/><circle cx="106" cy="113" r="12" fill="#E4A2A1"/><circle cx="221" cy="113" r="20" fill="#D9B48E"/><circle cx="221" cy="113" r="12" fill="#E4A2A1"/><path d="M83 112 l7 -16 l5 13Z" fill="#BB8854"/><path d="M113 89 l7 -16 l5 13Z" fill="#BB8854"/><path d="M148 80 l7 -16 l5 13Z" fill="#BB8854"/><path d="M178 87 l7 -16 l5 13Z" fill="#BB8854"/><path d="M210 105 l7 -16 l5 13Z" fill="#BB8854"/><path d="M238 128 l7 -16 l5 13Z" fill="#BB8854"/><ellipse cx="140" cy="145" rx="5" ry="7" fill="#675444" /><circle cx="139" cy="143" r="1.8" fill="#FFFFFF"/><ellipse cx="190" cy="145" rx="5" ry="7" fill="#675444" /><circle cx="189" cy="143" r="1.8" fill="#FFFFFF"/><ellipse cx="166" cy="165" rx="10" ry="7" fill="#675444" /><path d="M158 179 Q165 185 173 178" fill="none" stroke="#675444" stroke-width="3" stroke-linecap="round" stroke-linejoin="round"/></g></svg>